HIERARCHY
ROOT Hips
{
  OFFSET 5.84602e-005 68.8428 3.50346
  CHANNELS 6 Xposition Yposition Zposition Zrotation Xrotation Yrotation
  JOINT Spine
  {
    OFFSET 0 8.597 -4.6522
    CHANNELS 3 Zrotation Xrotation Yrotation
    JOINT Spine1
    {
      OFFSET 0 7.8454 0.4098
      CHANNELS 3 Zrotation Xrotation Yrotation
      JOINT Spine2
      {
        OFFSET 0 9.7078 -2.1609
        CHANNELS 3 Zrotation Xrotation Yrotation
        JOINT Neck
        {
          OFFSET 0 21.8761 -0.4549
          CHANNELS 3 Zrotation Xrotation Yrotation
          JOINT Head
          {
            OFFSET 0 12.3537 3.3602
            CHANNELS 3 Zrotation Xrotation Yrotation
            End Site
            {
              OFFSET 0.0001 18.9506 0.5657
            }
          }
        }
        JOINT LeftShoulder
        {
          OFFSET 2.2086 21.1115 7.2329
          CHANNELS 3 Zrotation Xrotation Yrotation
          JOINT LeftArm
          {
            OFFSET 13.1193 3.0282 -4.8998
            CHANNELS 3 Zrotation Xrotation Yrotation
            JOINT LeftForeArm
            {
              OFFSET 27.4081 -0.0973053 -0.2375
              CHANNELS 3 Zrotation Xrotation Yrotation
              JOINT LeftHand
              {
                OFFSET 22.8641 0.0662994 -0.1369
                CHANNELS 3 Zrotation Xrotation Yrotation
                JOINT LeftHandIndex1
                {
                  OFFSET 8.8614 0.775009 2.4612
                  CHANNELS 3 Zrotation Xrotation Yrotation
                  JOINT LeftHandIndex2
                  {
                    OFFSET 3.3146 -0.808304 0.5841
                    CHANNELS 3 Zrotation Xrotation Yrotation
                    JOINT LeftHandIndex3
                    {
                      OFFSET 2.2628 -0.552002 0.3989
                      CHANNELS 3 Zrotation Xrotation Yrotation
                      End Site
                      {
                        OFFSET 1.6102 -0.4807 0.2612
                      }
                    }
                  }
                }
                JOINT LeftHandMiddle1
                {
                  OFFSET 8.9937 0.895004 0.2143
                  CHANNELS 3 Zrotation Xrotation Yrotation
                  JOINT LeftHandMiddle2
                  {
                    OFFSET 4.0984 0.0113983 -0.0242
                    CHANNELS 3 Zrotation Xrotation Yrotation
                    JOINT LeftHandMiddle3
                    {
                      OFFSET 2.2716 0.00689697 -0.0138001
                      CHANNELS 3 Zrotation Xrotation Yrotation
                      End Site
                      {
                        OFFSET 2.0404 -0.1441 0.0027
                      }
                    }
                  }
                }
                JOINT LeftHandRing1
                {
                  OFFSET 8.5234 0.597198 -2.0164
                  CHANNELS 3 Zrotation Xrotation Yrotation
                  JOINT LeftHandRing2
                  {
                    OFFSET 3.7188 -0.188293 -0.2328
                    CHANNELS 3 Zrotation Xrotation Yrotation
                    JOINT LeftHandRing3
                    {
                      OFFSET 2.1191 -0.106598 -0.1332
                      CHANNELS 3 Zrotation Xrotation Yrotation
                      End Site
                      {
                        OFFSET 1.8737 -0.2304 -0.0886
                      }
                    }
                  }
                }
                JOINT LeftHandPinky1
                {
                  OFFSET 7.9094 -0.601089 -3.4825
                  CHANNELS 3 Zrotation Xrotation Yrotation
                  JOINT LeftHandPinky2
                  {
                    OFFSET 2.2874 -0.477005 -0.6314
                    CHANNELS 3 Zrotation Xrotation Yrotation
                    JOINT LeftHandPinky3
                    {
                      OFFSET 1.6774 -0.349396 -0.4633
                      CHANNELS 3 Zrotation Xrotation Yrotation
                      End Site
                      {
                        OFFSET 1.4888 -0.4091 -0.3416
                      }
                    }
                  }
                }
                JOINT LeftHandThumb1
                {
                  OFFSET 1.833 -1.3875 1.3896
                  CHANNELS 3 Zrotation Xrotation Yrotation
                  JOINT LeftHandThumb2
                  {
                    OFFSET 3.4129 -1.121 2.5732
                    CHANNELS 3 Zrotation Xrotation Yrotation
                    JOINT LeftHandThumb3
                    {
                      OFFSET 2.2474 -0.804199 1.6192
                      CHANNELS 3 Zrotation Xrotation Yrotation
                      End Site
                      {
                        OFFSET 1.6527 -0.5689 1.1317
                      }
                    }
                  }
                }
              }
            }
          }
        }
        JOINT RightShoulder
        {
          OFFSET -2.2086 21.1115 7.2329
          CHANNELS 3 Zrotation Xrotation Yrotation
          JOINT RightArm
          {
            OFFSET -13.1216 3.0287 -4.9007
            CHANNELS 3 Zrotation Xrotation Yrotation
            JOINT RightForeArm
            {
              OFFSET -27.4081 -0.0973053 -0.2375
              CHANNELS 3 Zrotation Xrotation Yrotation
              JOINT RightHand
              {
                OFFSET -22.8641 0.0664063 -0.1369
                CHANNELS 3 Zrotation Xrotation Yrotation
                JOINT RightHandIndex1
                {
                  OFFSET -8.8614 0.774994 2.4612
                  CHANNELS 3 Zrotation Xrotation Yrotation
                  JOINT RightHandIndex2
                  {
                    OFFSET -3.3146 -0.808304 0.5841
                    CHANNELS 3 Zrotation Xrotation Yrotation
                    JOINT RightHandIndex3
                    {
                      OFFSET -2.2628 -0.552002 0.3989
                      CHANNELS 3 Zrotation Xrotation Yrotation
                      End Site
                      {
                        OFFSET -1.6102 -0.4807 0.2612
                      }
                    }
                  }
                }
                JOINT RightHandMiddle1
                {
                  OFFSET -8.9937 0.894989 0.2143
                  CHANNELS 3 Zrotation Xrotation Yrotation
                  JOINT RightHandMiddle2
                  {
                    OFFSET -4.0984 0.0113983 -0.0242
                    CHANNELS 3 Zrotation Xrotation Yrotation
                    JOINT RightHandMiddle3
                    {
                      OFFSET -2.2716 0.00691223 -0.0138001
                      CHANNELS 3 Zrotation Xrotation Yrotation
                      End Site
                      {
                        OFFSET -2.0404 -0.1441 0.0027
                      }
                    }
                  }
                }
                JOINT RightHandRing1
                {
                  OFFSET -8.5234 0.597198 -2.0164
                  CHANNELS 3 Zrotation Xrotation Yrotation
                  JOINT RightHandRing2
                  {
                    OFFSET -3.7188 -0.188309 -0.2328
                    CHANNELS 3 Zrotation Xrotation Yrotation
                    JOINT RightHandRing3
                    {
                      OFFSET -2.1191 -0.106598 -0.1332
                      CHANNELS 3 Zrotation Xrotation Yrotation
                      End Site
                      {
                        OFFSET -1.8737 -0.2304 -0.0886
                      }
                    }
                  }
                }
                JOINT RightHandPinky1
                {
                  OFFSET -7.9094 -0.601105 -3.4825
                  CHANNELS 3 Zrotation Xrotation Yrotation
                  JOINT RightHandPinky2
                  {
                    OFFSET -2.2874 -0.477005 -0.6314
                    CHANNELS 3 Zrotation Xrotation Yrotation
                    JOINT RightHandPinky3
                    {
                      OFFSET -1.6774 -0.349396 -0.4633
                      CHANNELS 3 Zrotation Xrotation Yrotation
                      End Site
                      {
                        OFFSET -1.4888 -0.4091 -0.3416
                      }
                    }
                  }
                }
                JOINT RightHandThumb1
                {
                  OFFSET -1.833 -1.38751 1.3896
                  CHANNELS 3 Zrotation Xrotation Yrotation
                  JOINT RightHandThumb2
                  {
                    OFFSET -3.41299 -1.12099 2.5732
                    CHANNELS 3 Zrotation Xrotation Yrotation
                    JOINT RightHandThumb3
                    {
                      OFFSET -2.24741 -0.804108 1.6192
                      CHANNELS 3 Zrotation Xrotation Yrotation
                      End Site
                      {
                        OFFSET -1.6527 -0.5689 1.1317
                      }
                    }
                  }
                }
              }
            }
          }
        }
      }
    }
  }
  JOINT RightUpLeg
  {
    OFFSET -9.1966 3.8861 -0.7581
    CHANNELS 3 Zrotation Xrotation Yrotation
    JOINT RightLeg
    {
      OFFSET -0.7359 -41.0265 0
      CHANNELS 3 Zrotation Xrotation Yrotation
      JOINT RightFoot
      {
        OFFSET 0 -40.2855 0
        CHANNELS 3 Zrotation Xrotation Yrotation
        JOINT RightToeBase
        {
          OFFSET 0 -5.6122 11.7359
          CHANNELS 3 Zrotation Xrotation Yrotation
          End Site
          {
            OFFSET 0 0 7.8731
          }
        }
      }
    }
  }
  JOINT LeftUpLeg
  {
    OFFSET 9.1965 3.8864 -0.7581
    CHANNELS 3 Zrotation Xrotation Yrotation
    JOINT LeftLeg
    {
      OFFSET 0.7359 -41.0268 0
      CHANNELS 3 Zrotation Xrotation Yrotation
      JOINT LeftFoot
      {
        OFFSET 0 -40.2855 0
        CHANNELS 3 Zrotation Xrotation Yrotation
        JOINT LeftToeBase
        {
          OFFSET 0 -5.6122 11.7359
          CHANNELS 3 Zrotation Xrotation Yrotation
          End Site
          {
            OFFSET 0 0 7.8731
          }
        }
      }
    }
  }
}
MOTION
Frames:	4
Frame Time:	0.0333333
1.63106 42.1699 5.06028 0 26.6503 -0 0.241778 -1.92639 -0.278835 0.47457 -3.85392 -0.549996 0.47457 -3.85392 -0.549995 -1.06186e-005 19.7262 8.99781e-006 6.43231 -37.5151 3.30511 -17.8775 -9.74796 -27.4346 -57.6548 57.3274 22.2039 -3.29168 2.10046 -20.3413 26.4121 -6.41221 -31.8766 3.18055e-015 -1.19271e-015 -2.38542e-015 3.18055e-015 0 -1.98785e-016 -9.54166e-015 7.95139e-016 -1.98785e-016 3.18055e-015 -1.19271e-015 -2.38542e-015 -0.014602 -8.53825e-005 -9.92254e-006 3.86217e-032 7.95139e-016 -2.78299e-015 3.18055e-015 -1.19271e-015 -2.38542e-015 -0.0187394 -0.00118213 5.8606e-005 -1.45084e-006 -1.65172e-006 6.23648e-007 3.18055e-015 -1.19271e-015 -2.38542e-015 -0.0123046 -0.00325936 0.00068451 6.36111e-015 -3.18055e-015 -8.34896e-015 3.18055e-015 -1.19271e-015 -2.38542e-015 3.18055e-015 0 -1.98785e-016 -9.54166e-015 7.95139e-016 -1.98785e-016 12.2597 0.00773284 -34.5974 91.9176 -2.63722 78.3609 18.4591 46.6562 85.1596 37.3447 -36.3751 14.2787 2.31848e-006 4.563e-007 -2.3859e-006 -3.18055e-015 3.18055e-015 -7.95139e-015 -1.06252e-006 6.88439e-007 -1.71468e-006 2.31848e-006 4.563e-007 -2.3859e-006 0.0150323 -8.99272e-005 -3.44124e-007 -1.06253e-006 6.88214e-007 -1.71477e-006 2.31848e-006 4.563e-007 -2.3859e-006 0.0190107 -0.0011924 -6.35209e-005 -1.06255e-006 6.88155e-007 -1.71478e-006 2.31848e-006 4.563e-007 -2.3859e-006 0.0122731 -0.00324871 -0.000678242 -1.06258e-006 6.88252e-007 -1.71472e-006 2.31848e-006 4.563e-007 -2.3859e-006 -3.18055e-015 3.18055e-015 -7.95139e-015 -1.06252e-006 6.88439e-007 -1.71468e-006 -61.3564 -11.5232 -20.197 -1.27816 86.9697 -0.576118 43.3771 41.6968 -53.6462 -2.21355e-006 -4.71713e-007 -6.87918e-006 61.2313 -11.4448 20.2503 0.901511 86.978 0.946145 -43.3167 41.7179 53.5982 9.11259e-006 -2.55003e-006 -3.09499e-006 
1.63113 42.2349 4.81963 0 27.3031 -0 0.242705 -2.07675 -0.278032 0.475784 -4.15464 -0.547792 0.475784 -4.15463 -0.547792 -6.15694e-006 18.9666 8.31229e-006 6.42518 -37.9486 3.35383 -17.9858 -9.45577 -27.2284 -57.6548 57.3274 22.2038 -3.2412 2.08741 -20.1141 26.5434 -6.45742 -32.1155 2.75869e-032 1.98785e-015 -7.95139e-016 -1.79315e-032 3.97569e-016 2.5842e-015 6.36111e-015 -7.95139e-016 -2.18663e-015 2.75869e-032 1.98785e-015 -7.95139e-016 -0.0145899 -8.52673e-005 -9.99463e-008 -6.36111e-015 2.38542e-015 1.11319e-014 2.75869e-032 1.98785e-015 -7.95139e-016 -0.0187209 -0.00117293 4.81682e-005 -1.27222e-014 7.95139e-016 5.76476e-015 2.75869e-032 1.98785e-015 -7.95139e-016 -0.0122415 -0.00324242 0.000677146 6.36111e-015 0 -2.5842e-015 2.75869e-032 1.98785e-015 -7.95139e-016 -1.79315e-032 3.97569e-016 2.5842e-015 6.36111e-015 -7.95139e-016 -2.18663e-015 12.3709 0.0901999 -34.878 91.9203 -2.49847 78.2893 18.4591 46.6561 85.1597 37.4559 -36.3296 14.3668 -9.54166e-015 3.18055e-015 -0 3.12563e-006 2.31105e-006 -1.21088e-006 6.37353e-007 -4.14135e-007 1.02846e-006 -9.54166e-015 3.18055e-015 -0 0.0149911 -8.89943e-005 1.78597e-007 6.37363e-007 -4.14001e-007 1.02851e-006 -9.54166e-015 3.18055e-015 -0 0.0190115 -0.00119048 -6.18517e-005 6.37376e-007 -4.13965e-007 1.02852e-006 -9.54166e-015 3.18055e-015 -0 0.0122664 -0.00324169 -0.000678731 2.2489e-006 9.94191e-007 5.60036e-007 -9.54166e-015 3.18055e-015 -0 3.12563e-006 2.31105e-006 -1.21088e-006 6.37353e-007 -4.14135e-007 1.02846e-006 -61.1999 -12.2266 -20.3825 -1.57619 87.2227 -0.279967 43.9797 41.4464 -54.0545 -1.54015e-006 1.97902e-006 -4.7432e-006 61.0643 -12.1456 20.4326 1.17141 87.2321 0.677513 -43.9248 41.4651 54.0099 6.39243e-008 2.29422e-006 1.54321e-007 
1.6312 42.3009 4.579 0 27.9558 -0 0.243631 -2.22708 -0.27722 0.477006 -4.45532 -0.54557 0.477006 -4.45532 -0.545571 -6.22766e-006 18.207 3.44232e-006 6.41849 -38.3815 3.40269 -18.095 -9.16399 -27.0218 -57.6548 57.3273 22.2038 -3.19068 2.07458 -19.8868 26.6745 -6.50319 -32.3544 3.18055e-015 7.95139e-016 -3.97569e-016 1.44139e-006 1.638e-006 -6.33564e-007 -1.44139e-006 -1.638e-006 6.33564e-007 3.18055e-015 7.95139e-016 -3.97569e-016 -0.0145839 -9.23189e-005 9.87814e-007 3.18055e-015 -3.97569e-016 -1.98785e-015 3.18055e-015 7.95139e-016 -3.97569e-016 -0.0187259 -0.00117768 5.94091e-005 -1.4394e-006 -1.63798e-006 6.33305e-007 3.18055e-015 7.95139e-016 -3.97569e-016 -0.0123008 -0.00325611 0.000674975 -9.54166e-015 -3.97569e-016 1.78906e-015 3.18055e-015 7.95139e-016 -3.97569e-016 1.44139e-006 1.638e-006 -6.33564e-007 -1.44139e-006 -1.638e-006 6.33564e-007 12.4826 0.172101 -35.1588 91.9233 -2.3597 78.2177 18.4591 46.6562 85.1597 37.5669 -36.2839 14.4547 4.15628e-006 1.72867e-006 -2.51352e-006 1.19447e-006 -1.02808e-006 4.14341e-007 2.12397e-007 -1.38404e-007 3.42703e-007 4.15628e-006 1.72867e-006 -2.51352e-006 0.0150021 -9.19839e-005 6.7204e-007 1.83742e-006 1.26959e-006 -1.29106e-007 4.15628e-006 1.72867e-006 -2.51352e-006 0.0189959 -0.00119587 -5.70889e-005 2.12404e-007 -1.38348e-007 3.42723e-007 4.15628e-006 1.72867e-006 -2.51352e-006 0.0122647 -0.00325307 -0.000672054 2.1241e-007 -1.38367e-007 3.42711e-007 4.15628e-006 1.72867e-006 -2.51352e-006 1.19447e-006 -1.02808e-006 4.14341e-007 2.12397e-007 -1.38404e-007 3.42703e-007 -61.0453 -12.9306 -20.5665 -1.934 87.4756 0.0758752 44.5777 41.1927 -54.4579 -1.47547e-006 -3.13523e-007 -4.58626e-006 60.8989 -12.847 20.613 1.4957 87.4861 0.354489 -44.5281 41.2091 54.4164 -7.98549e-007 -2.14039e-006 -2.44826e-006 
1.63127 42.3679 4.33841 0 28.6084 -0 0.244555 -2.37742 -0.276399 0.478236 -4.75595 -0.543332 0.478237 -4.75596 -0.543333 -1.5114e-006 17.4473 2.29965e-006 6.41224 -38.8138 3.45171 -18.2053 -8.87265 -26.8148 -57.6548 57.3274 22.2038 -3.1401 2.06188 -19.6595 26.8054 -6.54948 -32.5931 -3.71838e-006 -4.64328e-006 -1.72577e-006 6.36111e-015 2.78299e-015 -5.56597e-015 -1.85919e-006 -2.32164e-006 -8.62887e-007 -3.71838e-006 -4.64328e-006 -1.72577e-006 -0.014605 -9.41186e-005 -2.082e-006 -1.85901e-006 -2.32153e-006 -8.63181e-007 -3.71838e-006 -4.64328e-006 -1.72577e-006 -0.0186981 -0.00117119 4.6874e-005 -1.85897e-006 -2.32148e-006 -8.63247e-007 -3.71838e-006 -4.64328e-006 -1.72577e-006 -0.0122635 -0.00324647 0.000656433 -1.85908e-006 -2.3215e-006 -8.63091e-007 -3.71838e-006 -4.64328e-006 -1.72577e-006 6.36111e-015 2.78299e-015 -5.56597e-015 -1.85919e-006 -2.32164e-006 -8.62887e-007 12.5947 0.25343 -35.4397 91.9264 -2.22093 78.1461 18.4591 46.6562 85.1597 37.6778 -36.2381 14.5425 3.37771e-006 -2.33383e-007 -6.70965e-007 -3.59005e-006 3.72149e-007 3.28379e-007 3.37771e-006 -2.33383e-007 -6.70965e-007 3.37771e-006 -2.33383e-007 -6.70965e-007 0.0149525 -9.18653e-005 1.69895e-006 3.37786e-006 -2.33472e-007 -6.70937e-007 3.37771e-006 -2.33383e-007 -6.70965e-007 0.0190071 -0.00119488 -5.53645e-005 3.3779e-006 -2.33505e-007 -6.70962e-007 3.37771e-006 -2.33383e-007 -6.70965e-007 0.0122777 -0.00324942 -0.000675708 3.37782e-006 -2.33469e-007 -6.71043e-007 3.37771e-006 -2.33383e-007 -6.70965e-007 -3.59005e-006 3.72149e-007 3.28379e-007 3.37771e-006 -2.33383e-007 -6.70965e-007 -60.8924 -13.635 -20.7489 -2.36991 87.7285 0.509908 45.171 40.9358 -54.856 4.96907e-007 1.63614e-006 -5.70397e-007 60.7354 -13.5487 20.7919 1.89259 87.7401 -0.0411737 -45.1267 40.9498 54.8178 -7.34326e-007 1.53487e-007 -2.29446e-006 
